<svg xmlns="http://www.w3.org/2000/svg" viewBox="0 0 800 450" fill="none">
  <rect width="800" height="450" fill="#1a1a1a"/>
  <rect x="0" y="0" width="800" height="40" fill="#252525"/>
  <circle cx="20" cy="20" r="6" fill="#f5c518" opacity="0.8"/>
  <rect x="40" y="14" width="120" height="12" rx="2" fill="#3a3a3a"/>
  <rect x="680" y="12" width="100" height="16" rx="3" fill="#2a2a2a"/>
  <rect x="20" y="56" width="180" height="374" rx="4" fill="#222" stroke="#333" stroke-width="1"/>
  <rect x="32" y="72" width="80" height="8" rx="2" fill="#f5c518" opacity="0.6"/>
  <rect x="32" y="92" width="140" height="6" rx="2" fill="#3a3a3a"/>
  <rect x="32" y="108" width="120" height="6" rx="2" fill="#3a3a3a"/>
  <rect x="32" y="124" width="130" height="6" rx="2" fill="#3a3a3a"/>
  <rect x="32" y="150" width="60" height="6" rx="2" fill="#e63946" opacity="0.5"/>
  <rect x="32" y="170" width="156" height="100" rx="3" fill="#1e2a1e" stroke="#2d4a2d"/>
  <circle cx="110" cy="220" r="30" fill="#2d5a2d" opacity="0.4"/>
  <path d="M80 240 L100 200 L120 230 L140 190 L156 250" stroke="#4a8a4a" stroke-width="2" fill="none"/>
  <rect x="212" y="56" width="568" height="260" rx="4" fill="#1e1e1e" stroke="#333"/>
  <rect x="228" y="72" width="200" height="10" rx="2" fill="#f5c518" opacity="0.4"/>
  <ellipse cx="400" cy="200" rx="160" ry="90" fill="#1a2e1a" stroke="#3d6b3d" stroke-width="1.5"/>
  <path d="M280 200 Q340 140 400 180 T520 200 T560 170" stroke="#5a9a5a" stroke-width="2" fill="none" opacity="0.7"/>
  <circle cx="350" cy="185" r="8" fill="#e63946" opacity="0.8"/>
  <circle cx="430" cy="210" r="6" fill="#f5c518" opacity="0.8"/>
  <circle cx="480" cy="175" r="10" fill="#e63946" opacity="0.6"/>
  <rect x="212" y="328" width="180" height="102" rx="4" fill="#222" stroke="#333"/>
  <rect x="228" y="344" width="80" height="8" rx="2" fill="#3a3a3a"/>
  <rect x="228" y="362" width="148" height="50" rx="2" fill="#2a1a1a"/>
  <rect x="404" y="328" width="180" height="102" rx="4" fill="#222" stroke="#333"/>
  <rect x="420" y="344" width="80" height="8" rx="2" fill="#3a3a3a"/>
  <rect x="420" y="370" width="40" height="30" rx="2" fill="#e63946" opacity="0.5"/>
  <rect x="468" y="380" width="40" height="20" rx="2" fill="#f5c518" opacity="0.4"/>
  <rect x="516" y="360" width="40" height="40" rx="2" fill="#3a5a3a" opacity="0.5"/>
  <rect x="596" y="328" width="184" height="102" rx="4" fill="#222" stroke="#333"/>
  <rect x="612" y="344" width="80" height="8" rx="2" fill="#3a3a3a"/>
  <rect x="612" y="362" width="152" height="8" rx="2" fill="#2d4a2d"/>
  <rect x="612" y="378" width="120" height="8" rx="2" fill="#3d6b3d"/>
  <rect x="612" y="394" width="140" height="8" rx="2" fill="#2d4a2d"/>
</svg>
